<?xml version="1.0" encoding="UTF-8"?>
<svg id="Layer_1" data-name="Layer 1" xmlns="http://www.w3.org/2000/svg" version="1.1" viewBox="0 0 841.89 595.28">
  <defs>
    <style>
      .cls-1 {
        fill: #638dc3;
      }

      .cls-1, .cls-2, .cls-3, .cls-4 {
        stroke-width: 0px;
      }

      .cls-2 {
        fill: #c9e2f5;
      }

      .cls-3 {
        fill: #e5f2fc;
      }

      .cls-4 {
        fill: #daecf9;
      }
    </style>
  </defs>
  <path class="cls-1" d="M.07,518.16c-18.49-8.33-27-26.25-30.82-42.97,10.45-22.43,23.55-34.73,31.79-38.65,23.33-11.1,50.75-4.08,64.41,13.18,13.66,17.27,19.15,36.99,25.41,39.84,5.62,2.55,49,4.93,75.51,45.87-59.36,4.12-74.36.39-83.81-3.13-19.23-7.18-42.93,3.7-82.48-14.14"/>
  <path class="cls-1" d="M427.83,496.77c-18.49-8.33-27-26.25-30.82-42.97,10.45-22.43,23.55-34.73,31.79-38.65,23.33-11.1,50.75-4.08,64.41,13.18,13.66,17.27,19.15,36.99,25.41,39.84,5.62,2.55,49,4.93,75.51,45.87-59.36,4.12-74.36.39-83.81-3.13-19.23-7.18-42.93,3.7-82.48-14.14"/>
  <path class="cls-4" d="M912.58,499.93H-118.56s3.77,72.07,62.15,95.34h942.78l26.21-95.34Z"/>
  <ellipse class="cls-3" cx="65.76" cy="523.04" rx="26.28" ry="5.24"/>
  <ellipse class="cls-3" cx="117.05" cy="556.8" rx="13.14" ry="5.24"/>
  <ellipse class="cls-3" cx="275.58" cy="562.96" rx="50.03" ry="6.16"/>
  <ellipse class="cls-3" cx="470.98" cy="523.04" rx="50.03" ry="6.16"/>
  <ellipse class="cls-3" cx="646.15" cy="563.52" rx="29.95" ry="6.73"/>
  <ellipse class="cls-3" cx="796.54" cy="547.64" rx="28.94" ry="6.12"/>
  <path class="cls-2" d="M222.04,499.93s8.33,12.11,33.71,6.09c18.18-4.31,24.93,6.31,41.91,10.82,24.71,6.56,52.17,7.82,68.71,4.2,11.55-2.52,5.38-10.61,6.25-21.12h-150.57Z"/>
  <path class="cls-2" d="M126.6,595.28s-8.33-12.11-33.71-6.09c-18.18,4.31-24.93-6.31-41.91-10.82-24.71-6.56-52.17-7.82-68.71-4.2-11.55,2.52-5.38,10.61-6.25,21.12H126.6Z"/>
  <path class="cls-2" d="M691.88,499.93s8.33,12.11,33.71,6.09c18.18-4.31,24.93,6.31,41.91,10.82,24.71,6.56,52.17,7.82,68.71,4.2,11.55-2.52,5.38-10.61,6.25-21.12h-150.57Z"/>
  <path class="cls-2" d="M596.43,595.28s-8.33-12.11-33.71-6.09c-18.18,4.31-24.93-6.31-41.91-10.82-24.71-6.56-52.17-7.82-68.71-4.2-11.55,2.52-5.38,10.61-6.25,21.12h150.57Z"/>
  <path class="cls-1" d="M133.96,499.93s13.37-12.38,33.58-14.65c20.2-2.28,23.05,8.11,31.3,7.33,8.25-.78,14.01-13.02,32.44-19.56,22.82-8.1,37.84-1.85,46.52-7.68,8.68-5.83,51.83-39.65,93.19-39.65,47.42,0,73.98,25.8,73.98,25.8v48.42H133.96Z"/>
  <path class="cls-1" d="M530.88,499.93s13.37-15.41,33.58-18.25c20.2-2.83,23.05,10.1,31.3,9.12,8.25-.97,14.01-16.21,32.44-24.36,22.82-10.09,37.84-2.3,46.52-9.57,8.68-7.26,51.83-49.37,93.19-49.37,47.42,0,73.98,32.12,73.98,32.12v60.29h-311.01Z"/>
</svg>